<?xml version="1.0" standalone="no"?>
<!DOCTYPE svg PUBLIC "-//W3C//DTD SVG 20010904//EN"
 "http://www.w3.org/TR/2001/REC-SVG-20010904/DTD/svg10.dtd">
<svg version="1.0" xmlns="http://www.w3.org/2000/svg"
 width="1000.000000pt" height="1000.000000pt" viewBox="0 0 1000.000000 1000.000000"
 preserveAspectRatio="xMidYMid meet">
<metadata>
Created by potrace 1.14, written by Peter Selinger 2001-2017
</metadata>
<g transform="translate(0.000000,1000.000000) scale(0.100000,-0.100000)"
fill="#000000" stroke="none">
<path d="M4368 7873 c-36 -23 -46 -70 -54 -268 -3 -88 -10 -165 -15 -171 -5
-6 -12 -44 -15 -85 -4 -41 -12 -80 -17 -87 -12 -15 -71 -10 -105 7 -9 5 -53
24 -97 41 -44 18 -104 43 -133 56 -29 13 -56 24 -60 24 -8 0 -125 46 -162 64
-14 7 -51 21 -83 31 -53 18 -61 18 -85 4 -49 -27 -52 -48 -37 -223 10 -110 15
-338 16 -732 l1 -571 -23 -28 c-13 -15 -36 -41 -51 -59 -42 -47 -61 -92 -49
-114 13 -25 130 -131 156 -143 11 -5 47 -29 80 -54 33 -25 67 -48 75 -52 8 -4
29 -17 46 -30 17 -13 34 -23 38 -23 4 0 28 -17 54 -38 115 -92 171 -109 237
-72 41 23 45 18 43 -45 -1 -22 4 -101 11 -175 13 -139 12 -310 -1 -310 -5 0
-57 0 -118 0 l-110 0 0 105 c0 115 1 118 74 170 24 17 29 28 30 66 1 62 1 62
-167 145 -16 8 -41 14 -57 14 -16 0 -31 4 -34 9 -3 5 -26 12 -51 15 -24 4 -47
11 -50 17 -4 5 -21 9 -40 9 -19 0 -46 5 -62 11 -70 29 -253 55 -295 43 -59
-17 -64 -40 -50 -226 7 -89 12 -220 12 -289 l0 -127 -42 -37 c-95 -83 -108
-98 -108 -126 0 -41 39 -81 169 -172 213 -151 265 -178 351 -185 81 -6 121 16
221 119 l87 89 585 3 586 2 16 -28 c10 -16 31 -34 49 -40 l31 -11 -25 -7 c-14
-4 -50 -8 -80 -8 -61 -2 -80 -12 -102 -56 -14 -27 -14 -34 2 -71 18 -41 62
-83 110 -103 14 -6 32 -15 40 -21 8 -5 44 -23 80 -39 36 -16 84 -46 107 -66
45 -38 113 -143 113 -174 0 -10 7 -35 15 -54 8 -20 15 -49 15 -64 1 -38 27
-66 86 -94 39 -19 64 -24 129 -23 151 2 412 64 555 132 59 28 94 55 166 126
191 192 241 315 278 696 8 80 18 210 21 290 3 80 10 188 16 240 5 52 13 154
18 226 l8 132 66 75 c70 80 89 127 67 167 -14 26 -87 100 -99 100 -4 0 -25 13
-45 29 -20 16 -102 61 -183 101 -82 39 -156 76 -166 81 -26 14 -97 36 -138 43
-60 10 -95 -11 -161 -95 -14 -19 -45 -58 -68 -86 l-40 -53 -138 0 c-142 0
-189 10 -140 29 53 20 145 96 187 154 40 55 49 72 84 157 33 81 64 258 71 405
3 61 8 144 12 185 4 41 7 91 6 110 -1 27 7 44 36 75 83 88 122 144 122 172 0
36 -61 97 -175 177 -44 30 -85 59 -90 64 -9 8 -50 32 -140 84 -90 53 -179 88
-222 88 -49 0 -74 -21 -144 -118 -34 -48 -76 -102 -93 -119 l-30 -33 -203 0
c-112 0 -203 3 -203 8 0 9 93 138 123 170 12 13 47 36 77 52 30 15 70 35 87
44 38 20 73 61 73 87 0 20 -63 76 -112 100 -71 34 -109 49 -128 49 -10 0 -21
4 -24 9 -4 5 -25 12 -49 16 -23 4 -46 11 -52 15 -5 4 -23 10 -40 13 -16 3 -57
13 -90 22 -190 52 -340 67 -387 38z m920 -973 c11 0 12 -21 8 -97 -3 -54 -9
-161 -13 -238 -11 -189 -12 -191 -139 -200 -52 -4 -97 -5 -100 -2 -3 2 -7 25
-9 50 -2 25 -8 54 -14 66 -6 11 -11 28 -11 38 0 10 -12 42 -27 72 -27 53 -101
123 -148 141 -27 10 -104 45 -182 81 -35 16 -69 29 -77 29 -7 0 -27 7 -42 15
-56 29 -112 18 -166 -33 -36 -33 -35 -50 7 -117 19 -30 40 -67 47 -82 17 -44
36 -170 27 -185 -5 -7 -9 -59 -9 -115 0 -154 22 -186 170 -243 19 -8 77 -16
128 -18 75 -3 98 0 119 13 32 21 89 22 112 1 10 -9 22 -16 28 -16 6 0 31 -18
55 -40 47 -41 57 -66 61 -155 l2 -40 -432 -3 -433 -2 0 542 0 543 512 -2 c282
-2 519 -3 526 -3z m-36 -1410 l709 0 -5 -107 c-7 -161 -23 -413 -35 -543 -6
-63 -13 -135 -15 -160 -9 -98 -41 -182 -88 -227 -64 -61 -111 -78 -282 -100
-37 -5 -250 17 -242 24 2 3 55 11 117 19 108 13 152 21 243 45 24 7 54 26 79
52 l39 42 -6 120 c-4 66 -9 178 -13 249 l-6 128 39 37 c101 95 111 134 49 188
-21 18 -48 33 -59 33 -12 1 -32 7 -46 15 -14 8 -38 14 -53 15 -16 0 -36 4 -45
9 -9 5 -44 12 -77 16 -33 3 -64 11 -70 16 -5 5 -30 9 -56 9 -25 0 -65 7 -88
15 -57 20 -262 25 -284 6 -22 -18 -23 -130 -2 -302 9 -69 15 -159 13 -198 l-3
-73 -105 0 -105 0 -3 146 -3 146 37 38 c47 47 74 91 74 119 0 44 -106 100
-270 143 -25 6 -67 18 -95 25 -27 8 -66 16 -85 19 -81 11 -161 32 -153 40 4 4
48 6 97 2 49 -3 408 -6 798 -6z"/>
<path d="M4830 3230 c-14 -4 -46 -8 -72 -9 -26 -1 -50 -5 -53 -11 -3 -5 -16
-10 -27 -10 -20 0 -107 -50 -136 -77 -7 -7 -21 -18 -30 -25 -24 -18 -86 -106
-104 -148 -41 -96 -51 -214 -27 -305 8 -27 16 -52 19 -55 3 -3 14 -22 24 -42
31 -61 96 -98 172 -98 74 0 113 23 167 100 31 43 54 86 75 140 5 14 17 42 26
63 9 21 16 48 16 61 0 12 3 26 8 30 9 10 32 117 39 184 3 33 10 52 18 52 65 0
138 -54 179 -134 21 -40 26 -62 26 -125 -1 -51 -5 -82 -15 -95 -8 -11 -15 -28
-15 -37 0 -24 -77 -100 -128 -127 -23 -12 -56 -22 -72 -22 -16 0 -32 -4 -35
-10 -3 -5 -21 -10 -39 -10 -47 0 -61 -20 -38 -51 11 -13 25 -41 31 -61 12 -38
13 -38 66 -38 30 0 57 5 60 10 3 6 15 10 25 10 36 0 146 65 196 116 158 160
170 437 26 590 -67 71 -142 112 -232 125 -113 17 -126 18 -150 9z m-50 -161
c0 -6 -4 -18 -9 -27 -5 -9 -12 -41 -15 -71 -4 -29 -9 -58 -13 -64 -3 -6 -10
-27 -14 -46 -13 -63 -59 -181 -71 -181 -4 0 -8 -5 -8 -12 0 -21 -32 -48 -57
-48 -36 0 -50 20 -63 88 -27 133 47 287 165 348 43 23 85 29 85 13z"/>
<path d="M6306 3187 l-26 -34 0 -350 0 -351 32 -31 c41 -40 63 -39 104 5 l34
35 0 350 c0 226 -4 349 -10 349 -5 0 -10 6 -10 14 0 19 -44 46 -74 46 -17 0
-34 -11 -50 -33z"/>
<path d="M2397 3193 c-3 -2 -15 -6 -28 -7 -39 -5 -82 -17 -116 -32 -17 -8 -35
-14 -41 -14 -19 0 -150 -137 -167 -176 -9 -21 -22 -50 -29 -63 -6 -13 -11 -65
-11 -116 0 -85 6 -115 36 -165 5 -8 14 -25 19 -38 15 -35 110 -125 155 -146
22 -10 52 -25 67 -32 36 -19 220 -19 256 0 15 8 48 23 73 34 72 32 74 36 74
198 0 137 -1 143 -24 168 -24 25 -29 26 -141 26 -113 0 -118 -1 -144 -26 -33
-33 -34 -73 -3 -102 19 -18 35 -22 84 -22 l60 0 2 -54 c1 -46 -3 -57 -21 -70
-29 -21 -136 -21 -162 -1 -11 8 -26 15 -33 15 -21 0 -83 61 -104 102 -14 28
-19 58 -19 121 0 74 3 89 26 123 54 81 101 104 215 104 48 0 91 -4 94 -10 9
-14 67 -12 86 3 30 23 41 56 30 90 -14 40 -59 60 -208 90 -12 3 -24 3 -26 0z"/>
<path d="M3195 3180 c-11 -5 -37 -9 -58 -9 -20 -1 -45 -5 -55 -11 -9 -5 -34
-17 -56 -26 -77 -35 -149 -122 -195 -237 -32 -82 2 -287 59 -348 8 -9 31 -34
51 -55 35 -37 56 -50 142 -88 49 -21 220 -22 257 -1 14 8 33 14 43 15 21 0 38
15 55 47 14 25 7 49 -21 81 -24 26 -91 30 -121 7 -41 -31 -166 -8 -234 43 -76
58 -98 211 -43 313 40 76 99 107 201 108 44 1 81 -4 87 -10 19 -19 89 -16 112
5 27 24 29 86 4 109 -24 20 -88 44 -138 50 -22 3 -47 7 -55 10 -8 3 -24 2 -35
-3z"/>
<path d="M3621 3146 c-32 -34 -25 -74 18 -103 32 -21 44 -23 182 -23 l148 0
-26 -27 c-14 -16 -51 -62 -81 -103 -31 -41 -59 -77 -62 -80 -8 -7 -140 -177
-174 -225 -16 -22 -32 -42 -35 -45 -11 -9 -41 -59 -41 -69 0 -5 15 -26 34 -45
l33 -36 256 0 255 0 31 25 c41 36 47 59 21 95 l-21 30 -180 0 c-98 0 -179 3
-179 6 0 4 19 31 43 59 23 29 51 65 62 81 11 15 34 44 50 65 17 20 41 52 55
70 14 18 30 37 35 43 6 6 17 20 25 32 8 11 43 59 78 105 66 88 71 111 35 152
-15 15 -41 17 -278 17 l-262 0 -22 -24z"/>
<path d="M5537 3152 c-15 -17 -17 -56 -17 -353 -1 -184 -1 -342 0 -351 0 -9
15 -26 34 -37 30 -19 49 -21 176 -21 139 0 280 21 280 42 0 4 6 8 13 8 8 0 29
17 49 38 45 49 62 127 46 207 -9 46 -19 64 -60 104 -49 49 -49 49 -28 64 35
24 50 65 50 132 0 51 -5 69 -28 104 -52 78 -65 81 -296 81 -184 0 -204 -2
-219 -18z m361 -144 c19 -19 15 -92 -7 -112 -15 -14 -35 -16 -112 -14 l-93 3
2 65 c0 36 1 66 2 68 0 1 44 2 98 2 63 0 102 -4 110 -12z m12 -293 c49 -25 62
-66 38 -118 -21 -42 -70 -58 -172 -55 l-88 3 -2 93 -1 92 98 0 c68 0 107 -5
127 -15z"/>
<path d="M6795 2996 c-79 -30 -164 -115 -180 -179 -4 -15 -11 -30 -16 -33 -16
-9 -10 -144 9 -197 20 -59 107 -154 162 -176 19 -8 73 -16 120 -19 77 -3 90
-1 137 24 90 47 126 91 168 206 26 71 6 180 -49 256 -34 49 -116 112 -145 112
-11 0 -23 5 -26 10 -8 13 -142 11 -180 -4z m196 -175 c43 -38 44 -39 47 -113
4 -71 3 -75 -30 -118 l-34 -45 -72 -3 c-72 -3 -73 -2 -107 32 -38 40 -52 96
-40 168 6 32 18 53 47 81 35 33 44 37 92 37 48 0 58 -4 97 -39z"/>
<path d="M7526 3001 c-3 -4 -18 -11 -34 -14 -33 -7 -142 -118 -142 -145 0 -9
-7 -26 -15 -36 -21 -27 -20 -177 0 -217 8 -16 23 -44 32 -61 24 -47 61 -83
115 -112 79 -44 197 -34 261 22 24 21 31 9 17 -32 -16 -50 -63 -76 -134 -76
-31 0 -69 6 -84 14 -15 7 -44 16 -66 19 -34 5 -42 3 -67 -24 -37 -40 -36 -58
4 -95 74 -70 248 -85 357 -30 70 35 106 70 131 125 17 40 19 68 19 337 l0 293
-26 20 c-39 31 -77 27 -108 -10 -26 -31 -27 -31 -47 -13 -11 10 -37 24 -57 31
-42 14 -148 17 -156 4z m170 -160 c17 -10 41 -37 52 -60 38 -72 25 -148 -36
-213 -23 -25 -33 -28 -92 -28 -59 0 -69 3 -92 28 -61 65 -74 141 -36 213 27
52 70 79 128 79 26 0 58 -8 76 -19z"/>
</g>
</svg>
